<svg xmlns="http://www.w3.org/2000/svg" version="1.1" xmlnsXlink="http://www.w3.org/1999/xlink" xmlns:svgjs="http://svgjs.dev/svgjs" width="1440" height="560" preserveAspectRatio="none" viewBox="0 0 1440 560"><g mask="url(&quot;#SvgjsMask1692&quot;)" fill="none"><rect width="1440" height="560" x="0" y="0" fill="#0e2a47"></rect><use xlinkHref="#SvgjsG1701" transform="translate(0, 0)" fill="#0f457b"></use><use xlinkHref="#SvgjsG1701" transform="translate(0, 468.00000000000006)" fill="#0f457b"></use><use xlinkHref="#SvgjsG1701" transform="translate(468.00000000000006, 0)" fill="#0f457b"></use><use xlinkHref="#SvgjsG1701" transform="translate(468.00000000000006, 468.00000000000006)" fill="#0f457b"></use><use xlinkHref="#SvgjsG1701" transform="translate(936.0000000000001, 0)" fill="#0f457b"></use><use xlinkHref="#SvgjsG1701" transform="translate(936.0000000000001, 468.00000000000006)" fill="#0f457b"></use><use xlinkHref="#SvgjsG1701" transform="translate(1404.0000000000002, 0)" fill="#0f457b"></use><use xlinkHref="#SvgjsG1701" transform="translate(1404.0000000000002, 468.00000000000006)" fill="#0f457b"></use></g><defs><mask id="SvgjsMask1692"><rect width="1440" height="560" fill="#ffffff"></rect></mask><g id="SvgjsG1699"><path d="M7.713 15.485C3.459 15.485 0 12.025 0 7.768 0 3.513 3.459 0.051 7.713 0.051S15.432 3.513 15.432 7.768c0 4.257-3.465 7.716-7.719 7.717z m0-1.91c3.201 0 5.81-2.604 5.81-5.809 0-3.199-2.61-5.807-5.81-5.807-3.202 0-5.804 2.609-5.804 5.807-0.001 3.206 2.602 5.809 5.804 5.809z"></path><path d="M7.753 8.787a0.574 0.574 0 0 1-0.554-0.042 0.578 0.578 0 0 1-0.259-0.399L6.931 3.862a0.58 0.58 0 0 1 1.162 0v3.478l2.975-1.4a0.578 0.578 0 0 1 0.773 0.275c0.138 0.292 0.011 0.637-0.276 0.774l-3.81 1.798z"></path></g><g id="SvgjsG1695"><path d="M7.926 0C3.552-0.003 0.004 3.58 0 7.996 0.004 12.419 3.552 16.002 7.926 16c4.377 0.002 7.94-3.581 7.927-8.004C15.85 3.58 12.303-0.003 7.926 0z m0 14.157c-3.366 0-6.095-2.757-6.091-6.161C1.831 4.598 4.56 1.842 7.926 1.843c3.368-0.001 6.098 2.756 6.102 6.153C14.024 11.4 11.294 14.157 7.927 14.157z"></path><path d="M7.104 10.825l1.792-0.008V9.432c-0.004-0.376 0.171-0.732 0.64-1.038 0.47-0.309 1.781-0.933 1.783-2.579-0.002-1.639-1.378-2.768-2.536-3.011-1.156-0.236-2.409-0.078-3.297 0.9-0.798 0.868-0.966 1.559-0.969 3.08h1.791v-0.354c-0.004-0.81 0.09-1.666 1.246-1.904 0.636-0.124 1.229 0.074 1.584 0.416 0.4 0.396 0.403 1.282-0.242 1.721l-1.004 0.684c-0.585 0.379-0.786 0.797-0.788 1.41v2.068z m-0.008 2.536V11.526h1.808v1.835z"></path></g><g id="SvgjsG1694"><path d="M11.974 14.95h-0.243c-0.142-0.162-0.195-0.364-0.152-0.614 0.071-0.413 0.364-0.754 0.504-0.803l-0.002-0.005a0.525 0.525 0 0 0 0.346-0.491l0.01-10.776c0-0.289-0.234-0.525-0.517-0.527 0 0-2.157-0.002-2.749-0.006l0.003-1.204c0-0.213-0.123-0.403-0.318-0.485a0.517 0.517 0 0 0-0.564 0.11L4.684 3.773C4.051 4.41 3.55 5.613 3.549 6.518L3.52 14.057c-0.002 1.054 0.844 1.918 1.892 1.923l6.56 0.02c0.285 0 0.518-0.235 0.518-0.521v-0.002c0-0.291-0.229-0.525-0.516-0.526M11.398 2.784c0 0.899-0.008 8.829-0.01 9.73h-5.912l3.702-3.137-0.007-6.597c0.336 0.002 1.916 0.004 2.227 0.004M4.557 14.06s0.002-0.434 0.002-0.498H10.75c-0.089 0.19-0.16 0.391-0.194 0.594-0.049 0.28-0.024 0.542 0.038 0.79l-5.179-0.016c-0.474 0-0.858-0.389-0.858-0.87"></path></g><g id="SvgjsG1698"><path d="M7.45 12.652S6.4 11.121 3.725 11.121C1.274 11.121 0 11.833 0 11.833V1.937s1.274-0.712 3.725-0.729C6.4 1.19 7.45 2.756 7.45 2.756V12.652z m1.087 0s1.05-1.531 3.725-1.531c2.451 0 3.725 0.712 3.725 0.713V1.937s-1.274-0.712-3.725-0.729c-2.675-0.017-3.725 1.548-3.725 1.548v9.896z"></path><path d="M8.012 15.733S6.4 13.411 3.725 13.411c-2.451 0-3.725 0.712-3.725 0.712v-1.186s1.274-0.712 3.725-0.729c2.675-0.018 4.287 2.34 4.287 2.34V15.733z m0 0s1.612-2.323 4.287-2.323c2.451 0 3.725 0.712 3.725 0.712v-1.185s-1.274-0.712-3.725-0.729c-2.675-0.019-4.287 2.339-4.287 2.339v1.185z"></path></g><g id="SvgjsG1696"><path d="M15.828 7.44l-1.288-1.3H6.996C6.352 5.004 5.141 4.237 3.752 4.24 1.681 4.236 0.004 5.93 0 8.016c0.005 2.091 1.681 3.785 3.751 3.788 1.386-0.002 2.594-0.767 3.24-1.9h1.517l1.202-1.202 0.92 0.92 0.882-0.883 0.908 0.906 0.919-0.919 0.919 0.919 1.57-1.568c0.226-0.236 0.233-0.402 0-0.637zM2.109 9.009c-0.553-0.005-0.998-0.455-0.993-1.006-0.005-0.558 0.44-1.008 0.993-1.005 0.544-0.003 0.989 0.447 0.993 1.005-0.004 0.55-0.449 1-0.993 1.006z"></path></g><g id="SvgjsG1697"><path d="M15.98 13.856L11.694 9.568a6.304 6.304 0 1 0-5.388 3.04 6.26 6.26 0 0 0 3.26-0.914l4.29 4.292L15.98 13.856zM2.406 6.308a3.908 3.908 0 0 1 3.9-3.9 3.906 3.906 0 0 1 3.9 3.9 3.9 3.9 0 0 1-7.8 0z"></path></g><g id="SvgjsG1700"><path d="M5.98 0h4.04v10.94H5.98z m0 12.78h4.04V16H5.98z"></path></g><g id="SvgjsG1693"><path d="M14.232 5.485L6.361 15.96l1.815-7.368-4.222 0.071L5.679 0h5.121L8.744 5.489z"></path></g><g id="SvgjsG1701"><use xlinkHref="#SvgjsG1693" transform="translate(0, 0) scale(1.8)" fill="#0f457b"></use><use xlinkHref="#SvgjsG1694" transform="translate(0, 46.800000000000004) scale(1.8)" fill="#0f457b"></use><use xlinkHref="#SvgjsG1695" transform="translate(0, 93.60000000000001) scale(1.8)" fill="#0f457b"></use><use xlinkHref="#SvgjsG1696" transform="translate(0, 140.4) scale(1.8)" fill="#0f457b"></use><use xlinkHref="#SvgjsG1696" transform="translate(0, 187.20000000000002) scale(1.8)" fill="#0f457b"></use><use xlinkHref="#SvgjsG1697" transform="translate(0, 234.00000000000003) scale(1.8)" fill="#0f457b"></use><use xlinkHref="#SvgjsG1694" transform="translate(0, 280.8) scale(1.8)" fill="#0f457b"></use><use xlinkHref="#SvgjsG1695" transform="translate(0, 327.6) scale(1.8)" fill="#0f457b"></use><use xlinkHref="#SvgjsG1697" transform="translate(0, 374.40000000000003) scale(1.8)" fill="#0f457b"></use><use xlinkHref="#SvgjsG1698" transform="translate(0, 421.20000000000005) scale(1.8)" fill="#0f457b"></use><use xlinkHref="#SvgjsG1693" transform="translate(46.800000000000004, 0) scale(1.8)" fill="#0f457b"></use><use xlinkHref="#SvgjsG1695" transform="translate(46.800000000000004, 46.800000000000004) scale(1.8)" fill="#0f457b"></use><use xlinkHref="#SvgjsG1696" transform="translate(46.800000000000004, 93.60000000000001) scale(1.8)" fill="#0f457b"></use><use xlinkHref="#SvgjsG1699" transform="translate(46.800000000000004, 140.4) scale(1.8)" fill="#0f457b"></use><use xlinkHref="#SvgjsG1696" transform="translate(46.800000000000004, 187.20000000000002) scale(1.8)" fill="#0f457b"></use><use xlinkHref="#SvgjsG1695" transform="translate(46.800000000000004, 234.00000000000003) scale(1.8)" fill="#0f457b"></use><use xlinkHref="#SvgjsG1700" transform="translate(46.800000000000004, 280.8) scale(1.8)" fill="#0f457b"></use><use xlinkHref="#SvgjsG1698" transform="translate(46.800000000000004, 327.6) scale(1.8)" fill="#0f457b"></use><use xlinkHref="#SvgjsG1698" transform="translate(46.800000000000004, 374.40000000000003) scale(1.8)" fill="#0f457b"></use><use xlinkHref="#SvgjsG1693" transform="translate(46.800000000000004, 421.20000000000005) scale(1.8)" fill="#0f457b"></use><use xlinkHref="#SvgjsG1693" transform="translate(93.60000000000001, 0) scale(1.8)" fill="#0f457b"></use><use xlinkHref="#SvgjsG1695" transform="translate(93.60000000000001, 46.800000000000004) scale(1.8)" fill="#0f457b"></use><use xlinkHref="#SvgjsG1695" transform="translate(93.60000000000001, 93.60000000000001) scale(1.8)" fill="#0f457b"></use><use xlinkHref="#SvgjsG1697" transform="translate(93.60000000000001, 140.4) scale(1.8)" fill="#0f457b"></use><use xlinkHref="#SvgjsG1696" transform="translate(93.60000000000001, 187.20000000000002) scale(1.8)" fill="#0f457b"></use><use xlinkHref="#SvgjsG1694" transform="translate(93.60000000000001, 234.00000000000003) scale(1.8)" fill="#0f457b"></use><use xlinkHref="#SvgjsG1695" transform="translate(93.60000000000001, 280.8) scale(1.8)" fill="#0f457b"></use><use xlinkHref="#SvgjsG1694" transform="translate(93.60000000000001, 327.6) scale(1.8)" fill="#0f457b"></use><use xlinkHref="#SvgjsG1696" transform="translate(93.60000000000001, 374.40000000000003) scale(1.8)" fill="#0f457b"></use><use xlinkHref="#SvgjsG1697" transform="translate(93.60000000000001, 421.20000000000005) scale(1.8)" fill="#0f457b"></use><use xlinkHref="#SvgjsG1693" transform="translate(140.4, 0) scale(1.8)" fill="#0f457b"></use><use xlinkHref="#SvgjsG1694" transform="translate(140.4, 46.800000000000004) scale(1.8)" fill="#0f457b"></use><use xlinkHref="#SvgjsG1698" transform="translate(140.4, 93.60000000000001) scale(1.8)" fill="#0f457b"></use><use xlinkHref="#SvgjsG1695" transform="translate(140.4, 140.4) scale(1.8)" fill="#0f457b"></use><use xlinkHref="#SvgjsG1695" transform="translate(140.4, 187.20000000000002) scale(1.8)" fill="#0f457b"></use><use xlinkHref="#SvgjsG1695" transform="translate(140.4, 234.00000000000003) scale(1.8)" fill="#0f457b"></use><use xlinkHref="#SvgjsG1694" transform="translate(140.4, 280.8) scale(1.8)" fill="#0f457b"></use><use xlinkHref="#SvgjsG1694" transform="translate(140.4, 327.6) scale(1.8)" fill="#0f457b"></use><use xlinkHref="#SvgjsG1699" transform="translate(140.4, 374.40000000000003) scale(1.8)" fill="#0f457b"></use><use xlinkHref="#SvgjsG1694" transform="translate(140.4, 421.20000000000005) scale(1.8)" fill="#0f457b"></use><use xlinkHref="#SvgjsG1698" transform="translate(187.20000000000002, 0) scale(1.8)" fill="#0f457b"></use><use xlinkHref="#SvgjsG1696" transform="translate(187.20000000000002, 46.800000000000004) scale(1.8)" fill="#0f457b"></use><use xlinkHref="#SvgjsG1700" transform="translate(187.20000000000002, 93.60000000000001) scale(1.8)" fill="#0f457b"></use><use xlinkHref="#SvgjsG1694" transform="translate(187.20000000000002, 140.4) scale(1.8)" fill="#0f457b"></use><use xlinkHref="#SvgjsG1698" transform="translate(187.20000000000002, 187.20000000000002) scale(1.8)" fill="#0f457b"></use><use xlinkHref="#SvgjsG1697" transform="translate(187.20000000000002, 234.00000000000003) scale(1.8)" fill="#0f457b"></use><use xlinkHref="#SvgjsG1697" transform="translate(187.20000000000002, 280.8) scale(1.8)" fill="#0f457b"></use><use xlinkHref="#SvgjsG1696" transform="translate(187.20000000000002, 327.6) scale(1.8)" fill="#0f457b"></use><use xlinkHref="#SvgjsG1698" transform="translate(187.20000000000002, 374.40000000000003) scale(1.8)" fill="#0f457b"></use><use xlinkHref="#SvgjsG1700" transform="translate(187.20000000000002, 421.20000000000005) scale(1.8)" fill="#0f457b"></use><use xlinkHref="#SvgjsG1699" transform="translate(234.00000000000003, 0) scale(1.8)" fill="#0f457b"></use><use xlinkHref="#SvgjsG1697" transform="translate(234.00000000000003, 46.800000000000004) scale(1.8)" fill="#0f457b"></use><use xlinkHref="#SvgjsG1694" transform="translate(234.00000000000003, 93.60000000000001) scale(1.8)" fill="#0f457b"></use><use xlinkHref="#SvgjsG1697" transform="translate(234.00000000000003, 140.4) scale(1.8)" fill="#0f457b"></use><use xlinkHref="#SvgjsG1700" transform="translate(234.00000000000003, 187.20000000000002) scale(1.8)" fill="#0f457b"></use><use xlinkHref="#SvgjsG1695" transform="translate(234.00000000000003, 234.00000000000003) scale(1.8)" fill="#0f457b"></use><use xlinkHref="#SvgjsG1698" transform="translate(234.00000000000003, 280.8) scale(1.8)" fill="#0f457b"></use><use xlinkHref="#SvgjsG1696" transform="translate(234.00000000000003, 327.6) scale(1.8)" fill="#0f457b"></use><use xlinkHref="#SvgjsG1700" transform="translate(234.00000000000003, 374.40000000000003) scale(1.8)" fill="#0f457b"></use><use xlinkHref="#SvgjsG1700" transform="translate(234.00000000000003, 421.20000000000005) scale(1.8)" fill="#0f457b"></use><use xlinkHref="#SvgjsG1697" transform="translate(280.8, 0) scale(1.8)" fill="#0f457b"></use><use xlinkHref="#SvgjsG1695" transform="translate(280.8, 46.800000000000004) scale(1.8)" fill="#0f457b"></use><use xlinkHref="#SvgjsG1697" transform="translate(280.8, 93.60000000000001) scale(1.8)" fill="#0f457b"></use><use xlinkHref="#SvgjsG1693" transform="translate(280.8, 140.4) scale(1.8)" fill="#0f457b"></use><use xlinkHref="#SvgjsG1698" transform="translate(280.8, 187.20000000000002) scale(1.8)" fill="#0f457b"></use><use xlinkHref="#SvgjsG1699" transform="translate(280.8, 234.00000000000003) scale(1.8)" fill="#0f457b"></use><use xlinkHref="#SvgjsG1695" transform="translate(280.8, 280.8) scale(1.8)" fill="#0f457b"></use><use xlinkHref="#SvgjsG1693" transform="translate(280.8, 327.6) scale(1.8)" fill="#0f457b"></use><use xlinkHref="#SvgjsG1696" transform="translate(280.8, 374.40000000000003) scale(1.8)" fill="#0f457b"></use><use xlinkHref="#SvgjsG1693" transform="translate(280.8, 421.20000000000005) scale(1.8)" fill="#0f457b"></use><use xlinkHref="#SvgjsG1699" transform="translate(327.6, 0) scale(1.8)" fill="#0f457b"></use><use xlinkHref="#SvgjsG1698" transform="translate(327.6, 46.800000000000004) scale(1.8)" fill="#0f457b"></use><use xlinkHref="#SvgjsG1696" transform="translate(327.6, 93.60000000000001) scale(1.8)" fill="#0f457b"></use><use xlinkHref="#SvgjsG1696" transform="translate(327.6, 140.4) scale(1.8)" fill="#0f457b"></use><use xlinkHref="#SvgjsG1694" transform="translate(327.6, 187.20000000000002) scale(1.8)" fill="#0f457b"></use><use xlinkHref="#SvgjsG1695" transform="translate(327.6, 234.00000000000003) scale(1.8)" fill="#0f457b"></use><use xlinkHref="#SvgjsG1697" transform="translate(327.6, 280.8) scale(1.8)" fill="#0f457b"></use><use xlinkHref="#SvgjsG1694" transform="translate(327.6, 327.6) scale(1.8)" fill="#0f457b"></use><use xlinkHref="#SvgjsG1700" transform="translate(327.6, 374.40000000000003) scale(1.8)" fill="#0f457b"></use><use xlinkHref="#SvgjsG1699" transform="translate(327.6, 421.20000000000005) scale(1.8)" fill="#0f457b"></use><use xlinkHref="#SvgjsG1694" transform="translate(374.40000000000003, 0) scale(1.8)" fill="#0f457b"></use><use xlinkHref="#SvgjsG1696" transform="translate(374.40000000000003, 46.800000000000004) scale(1.8)" fill="#0f457b"></use><use xlinkHref="#SvgjsG1696" transform="translate(374.40000000000003, 93.60000000000001) scale(1.8)" fill="#0f457b"></use><use xlinkHref="#SvgjsG1698" transform="translate(374.40000000000003, 140.4) scale(1.8)" fill="#0f457b"></use><use xlinkHref="#SvgjsG1694" transform="translate(374.40000000000003, 187.20000000000002) scale(1.8)" fill="#0f457b"></use><use xlinkHref="#SvgjsG1695" transform="translate(374.40000000000003, 234.00000000000003) scale(1.8)" fill="#0f457b"></use><use xlinkHref="#SvgjsG1700" transform="translate(374.40000000000003, 280.8) scale(1.8)" fill="#0f457b"></use><use xlinkHref="#SvgjsG1697" transform="translate(374.40000000000003, 327.6) scale(1.8)" fill="#0f457b"></use><use xlinkHref="#SvgjsG1699" transform="translate(374.40000000000003, 374.40000000000003) scale(1.8)" fill="#0f457b"></use><use xlinkHref="#SvgjsG1696" transform="translate(374.40000000000003, 421.20000000000005) scale(1.8)" fill="#0f457b"></use><use xlinkHref="#SvgjsG1700" transform="translate(421.20000000000005, 0) scale(1.8)" fill="#0f457b"></use><use xlinkHref="#SvgjsG1697" transform="translate(421.20000000000005, 46.800000000000004) scale(1.8)" fill="#0f457b"></use><use xlinkHref="#SvgjsG1693" transform="translate(421.20000000000005, 93.60000000000001) scale(1.8)" fill="#0f457b"></use><use xlinkHref="#SvgjsG1695" transform="translate(421.20000000000005, 140.4) scale(1.8)" fill="#0f457b"></use><use xlinkHref="#SvgjsG1700" transform="translate(421.20000000000005, 187.20000000000002) scale(1.8)" fill="#0f457b"></use><use xlinkHref="#SvgjsG1696" transform="translate(421.20000000000005, 234.00000000000003) scale(1.8)" fill="#0f457b"></use><use xlinkHref="#SvgjsG1699" transform="translate(421.20000000000005, 280.8) scale(1.8)" fill="#0f457b"></use><use xlinkHref="#SvgjsG1699" transform="translate(421.20000000000005, 327.6) scale(1.8)" fill="#0f457b"></use><use xlinkHref="#SvgjsG1699" transform="translate(421.20000000000005, 374.40000000000003) scale(1.8)" fill="#0f457b"></use><use xlinkHref="#SvgjsG1697" transform="translate(421.20000000000005, 421.20000000000005) scale(1.8)" fill="#0f457b"></use></g></defs></svg>